<svg width="145" height="145" viewBox="0 0 145 145" fill="none" xmlns="http://www.w3.org/2000/svg">
<path d="M58.7049 141.205L60.0078 141.463C60.0027 141.684 60.0338 141.886 60.101 142.071C60.1678 142.258 60.264 142.424 60.3897 142.57C60.5154 142.715 60.6677 142.836 60.8466 142.932C61.0228 143.029 61.22 143.1 61.4383 143.143C61.8262 143.22 62.1892 143.19 62.5274 143.054C62.8651 142.921 63.1557 142.684 63.3992 142.343C63.6422 142.005 63.8168 141.568 63.9229 141.032C64.0309 140.486 64.0371 140.009 63.9415 139.602C63.8431 139.196 63.6641 138.869 63.4045 138.619C63.1422 138.372 62.8182 138.21 62.4327 138.134C62.219 138.092 62.0138 138.08 61.817 138.099C61.6174 138.12 61.4322 138.171 61.2615 138.253C61.0885 138.335 60.9349 138.447 60.8005 138.589C60.6638 138.731 60.5551 138.903 60.4743 139.104L59.1728 138.839C59.2886 138.51 59.4572 138.213 59.6786 137.948C59.8976 137.682 60.1597 137.461 60.4649 137.285C60.7695 137.111 61.1087 136.995 61.4823 136.936C61.8555 136.88 62.2546 136.893 62.6796 136.977C63.3066 137.101 63.8376 137.357 64.2725 137.745C64.7075 138.133 65.0124 138.629 65.1873 139.233C65.3622 139.837 65.3739 140.522 65.2223 141.289C65.0703 142.057 64.7974 142.686 64.4038 143.176C64.0098 143.667 63.5378 144.009 62.9881 144.202C62.4383 144.395 61.8522 144.43 61.2298 144.307C60.8327 144.228 60.4744 144.1 60.1551 143.921C59.8357 143.742 59.5639 143.518 59.3395 143.249C59.1147 142.982 58.9471 142.677 58.8368 142.331C58.7237 141.988 58.6798 141.613 58.7049 141.205Z" fill="#C4C0CC"/>
<path d="M51.0187 134.155L48.1419 140.835L45.5849 139.733C45.1022 139.525 44.7338 139.277 44.4797 138.987C44.2225 138.698 44.0708 138.389 44.0244 138.06C43.9759 137.73 44.0228 137.399 44.1651 137.069C44.2822 136.797 44.4346 136.587 44.6223 136.438C44.8091 136.292 45.0163 136.197 45.2439 136.153C45.4715 136.109 45.7053 136.108 45.9452 136.15L45.9733 136.084C45.7419 135.969 45.5461 135.799 45.3858 135.572C45.2223 135.347 45.1226 135.085 45.0864 134.786C45.0503 134.487 45.1053 134.168 45.2513 133.829C45.4002 133.483 45.6179 133.208 45.9042 133.004C46.1896 132.802 46.535 132.694 46.9404 132.681C47.3458 132.667 47.804 132.77 48.3149 132.991L51.0187 134.155ZM49.3732 134.645L48.0719 134.085C47.6327 133.895 47.2803 133.843 47.0146 133.927C46.7459 134.012 46.5544 134.187 46.4402 134.453C46.355 134.651 46.3271 134.85 46.3566 135.051C46.3851 135.254 46.47 135.44 46.6111 135.609C46.7513 135.78 46.9464 135.92 47.1965 136.027L48.5304 136.602L49.3732 134.645ZM48.1553 137.473L46.9584 136.957C46.7497 136.867 46.5452 136.824 46.345 136.828C46.1439 136.834 45.965 136.888 45.8085 136.988C45.6488 137.089 45.5269 137.238 45.4426 137.433C45.3311 137.692 45.3307 137.944 45.4412 138.191C45.5496 138.436 45.7821 138.635 46.1386 138.789L47.3617 139.315L48.1553 137.473Z" fill="#C4C0CC"/>
<path d="M35.5347 125.963L36.629 126.703L33.1716 131.816L34.1718 132.492C34.4424 132.675 34.6922 132.786 34.9211 132.823C35.1467 132.862 35.3534 132.833 35.5412 132.737C35.7257 132.641 35.8902 132.487 36.0347 132.273C36.1793 132.059 36.2601 131.851 36.2772 131.648C36.293 131.448 36.2404 131.251 36.1196 131.057C35.9954 130.865 35.799 130.678 35.5304 130.496L34.0654 129.505L34.6781 128.599L36.2901 129.689C36.7529 130.002 37.0915 130.343 37.3057 130.711C37.5187 131.08 37.612 131.462 37.5858 131.856C37.5562 132.25 37.4108 132.641 37.1496 133.027C36.8897 133.411 36.5818 133.693 36.2261 133.873C35.867 134.053 35.4753 134.117 35.0508 134.064C34.6263 134.011 34.1836 133.829 33.7228 133.518L31.4607 131.988L35.5347 125.963ZM36.8038 130.8L35.6125 129.994L38.9234 128.255L40.1412 129.079L36.8038 130.8Z" fill="#C4C0CC"/>
<path d="M28.4019 119.967C28.767 120.326 29.0301 120.706 29.1913 121.11C29.3509 121.512 29.4032 121.905 29.3483 122.289C29.2933 122.673 29.1275 123.016 28.8509 123.318L27.8977 122.383C28.0269 122.234 28.1006 122.066 28.1189 121.879C28.1355 121.693 28.1019 121.502 28.018 121.307C27.9341 121.112 27.8051 120.929 27.6311 120.758C27.4452 120.576 27.2489 120.446 27.0423 120.37C26.834 120.295 26.6321 120.276 26.4365 120.313C26.241 120.35 26.0695 120.445 25.922 120.599C25.7661 120.754 25.6707 120.933 25.6358 121.134C25.6009 121.335 25.6289 121.547 25.7198 121.769C25.8089 121.989 25.9633 122.206 26.183 122.422L26.6419 122.872L25.9306 123.597L25.4718 123.147C25.291 122.97 25.1023 122.846 24.9058 122.776C24.7075 122.704 24.514 122.687 24.3252 122.724C24.1347 122.762 23.9666 122.858 23.8207 123.01C23.6748 123.155 23.5825 123.315 23.544 123.489C23.5022 123.664 23.5123 123.841 23.5742 124.022C23.6346 124.2 23.7458 124.369 23.9081 124.528C24.0669 124.684 24.2421 124.799 24.4337 124.875C24.6252 124.95 24.8147 124.975 25.0019 124.95C25.1875 124.926 25.3541 124.844 25.5018 124.704L26.4067 125.591C26.1148 125.876 25.7808 126.049 25.4048 126.111C25.0253 126.173 24.6399 126.133 24.2485 125.991C23.8554 125.851 23.4908 125.616 23.1545 125.286C22.808 124.946 22.571 124.586 22.4435 124.206C22.3126 123.825 22.284 123.457 22.3576 123.102C22.4312 122.746 22.5973 122.436 22.8559 122.173C23.1411 121.879 23.4676 121.718 23.8357 121.691C24.202 121.663 24.5553 121.755 24.8955 121.97L24.9353 121.929C24.62 121.52 24.473 121.111 24.4942 120.7C24.512 120.29 24.6809 119.924 25.0009 119.601C25.2861 119.31 25.6242 119.131 26.0153 119.064C26.403 118.996 26.8052 119.039 27.2218 119.193C27.6368 119.344 28.0302 119.603 28.4019 119.967Z" fill="#C4C0CC"/>
<path d="M21.7484 112.865L22.5583 114.015L15.1384 116.11L14.2017 114.781L18.6703 108.496L19.4802 109.645L15.8729 114.563L15.9057 114.61L21.7484 112.865ZM19.3907 114.47L17.1819 111.334L18.0469 110.725L20.2558 113.86L19.3907 114.47Z" fill="#C4C0CC"/>
<path d="M10.1318 106.302L9.12756 106.761L6.71291 101.485L7.71714 101.025L8.65255 103.069L14.2614 100.502L14.8052 101.691L9.19636 104.258L10.1318 106.302Z" fill="#C4C0CC"/>
<path d="M6.4994 92.809L6.05215 91.0173C5.91741 90.4776 5.8903 89.9926 5.97084 89.5626C6.0485 89.1308 6.22117 88.7718 6.48883 88.4853C6.7565 88.1989 7.10625 88.0018 7.53807 87.894C7.97219 87.7856 8.38043 87.7935 8.76279 87.9176C9.14286 88.0424 9.47437 88.2756 9.75732 88.6173C10.0397 88.9568 10.2483 89.3964 10.383 89.9361L11.0427 92.5788L3.98653 94.3403L3.66658 93.0586L9.67534 91.5586L9.33561 90.1976C9.26451 89.9128 9.15033 89.6851 8.99306 89.5145C8.8358 89.3439 8.65611 89.2302 8.45402 89.1733C8.25136 89.1141 8.04666 89.1103 7.83994 89.1619C7.54134 89.2364 7.3162 89.4146 7.16451 89.6965C7.00996 89.9767 6.98601 90.3303 7.09266 90.7576L7.5399 92.5492L6.4994 92.809Z" fill="#C4C0CC"/>
<path d="M3.31377 74.7308L3.38906 76.0568C3.17375 76.1069 2.98508 76.1876 2.82303 76.2988C2.65862 76.4101 2.52162 76.5447 2.41203 76.7027C2.30244 76.8607 2.2236 77.0382 2.17552 77.2354C2.12493 77.4303 2.10595 77.6389 2.11856 77.8611C2.14098 78.2558 2.26011 78.6 2.47597 78.8936C2.68946 79.1874 2.99137 79.4097 3.38171 79.5607C3.76969 79.7117 4.23667 79.7718 4.78267 79.7408C5.33812 79.7092 5.80122 79.5964 6.17196 79.4022C6.54021 79.2059 6.81265 78.9509 6.98929 78.6373C7.16343 78.3216 7.23936 77.9675 7.21709 77.5751C7.20474 77.3577 7.16483 77.156 7.09737 76.9702C7.02741 76.7821 6.93141 76.6156 6.80937 76.4708C6.68719 76.3236 6.54042 76.2027 6.36906 76.1081C6.19757 76.0111 6.00432 75.9486 5.78931 75.9205L5.72112 74.5941C6.06902 74.6241 6.39894 74.7133 6.71088 74.8615C7.02268 75.0075 7.30192 75.2062 7.54858 75.4578C7.79289 75.7095 7.9901 76.0089 8.14023 76.3561C8.288 76.7034 8.37416 77.0933 8.39872 77.5258C8.43495 78.164 8.31957 78.742 8.05257 79.2599C7.78557 79.7777 7.38135 80.1967 6.83991 80.5167C6.29847 80.8368 5.63775 81.0189 4.85776 81.0632C4.0754 81.1076 3.39824 81.0003 2.82629 80.7411C2.25197 80.482 1.80285 80.1103 1.47895 79.626C1.15505 79.1417 0.975111 78.5829 0.939144 77.9494C0.916195 77.5452 0.951583 77.1662 1.04531 76.8123C1.13903 76.4584 1.28809 76.1393 1.49247 75.855C1.69449 75.5708 1.9489 75.3323 2.25569 75.1394C2.55999 74.9443 2.91268 74.8081 3.31377 74.7308Z" fill="#C4C0CC"/>
<path d="M8.88377 63.1599L8.71095 64.4696L2.59212 63.6621L2.43417 64.8591C2.39143 65.183 2.4044 65.4558 2.47306 65.6774C2.53969 65.8963 2.65789 66.0683 2.82764 66.1934C2.99536 66.3158 3.20713 66.3939 3.46296 66.4277C3.7188 66.4614 3.94123 66.4406 4.13027 66.3653C4.31696 66.2896 4.4697 66.1546 4.58849 65.9601C4.70524 65.763 4.78483 65.5036 4.82726 65.1821L5.05861 63.4288L6.14296 63.5719L5.88838 65.5012C5.81529 66.0551 5.66213 66.5101 5.42888 66.8662C5.19329 67.2219 4.8935 67.4761 4.52951 67.6286C4.16347 67.7785 3.74927 67.823 3.2869 67.762C2.82687 67.7013 2.43705 67.5519 2.11742 67.3139C1.79576 67.0733 1.56363 66.7513 1.42103 66.348C1.27843 65.9448 1.24352 65.4673 1.3163 64.9158L1.67355 62.2084L8.88377 63.1599ZM5.12467 66.4571L5.31282 65.0312L8.3486 67.2157L8.15627 68.6732L5.12467 66.4571Z" fill="#C4C0CC"/>
<path d="M11.8172 47.6724C11.6995 47.9336 11.5284 48.1435 11.3039 48.302C11.0772 48.4595 10.8267 48.5544 10.5525 48.5867C10.2793 48.6169 10.0121 48.5731 9.7509 48.4555C9.48755 48.3369 9.2777 48.1658 9.12135 47.9422C8.96381 47.7155 8.86997 47.4655 8.83983 47.1923C8.80752 46.9181 8.85018 46.6504 8.96781 46.3892C9.0864 46.1258 9.25858 45.9165 9.48433 45.7611C9.7089 45.6026 9.9578 45.5083 10.231 45.4781C10.503 45.4448 10.7707 45.4875 11.0341 45.6061C11.2953 45.7237 11.5046 45.8959 11.6622 46.1227C11.8207 46.3472 11.9161 46.5966 11.9484 46.8708C11.9795 47.1419 11.9358 47.4091 11.8172 47.6724Z" fill="#C4C0CC"/>
<path d="M22.0176 25.5087L21.1235 26.4908C20.9369 26.3722 20.7472 26.2939 20.5544 26.256C20.3598 26.2165 20.1678 26.213 19.9783 26.2453C19.7887 26.2776 19.6067 26.3457 19.4323 26.4494C19.2577 26.5497 19.0955 26.6822 18.9456 26.8467C18.6795 27.1391 18.5171 27.4651 18.4586 27.8248C18.3982 28.1829 18.4508 28.5542 18.6163 28.9386C18.78 29.3214 19.0641 29.6969 19.4685 30.0651C19.8798 30.4396 20.2846 30.6913 20.6828 30.8202C21.0808 30.9456 21.4536 30.9617 21.8011 30.8683C22.1485 30.7716 22.4545 30.5779 22.7191 30.2873C22.8657 30.1263 22.9818 29.9566 23.0673 29.7783C23.1526 29.5967 23.2043 29.4116 23.2222 29.223C23.2418 29.0328 23.2254 28.8433 23.173 28.6547C23.1222 28.4644 23.0316 28.2826 22.9011 28.1094L23.8005 27.1321C24.0226 27.4016 24.1899 27.6996 24.3024 28.0261C24.4165 28.3509 24.47 28.6895 24.4631 29.0417C24.4544 29.3924 24.3786 29.7429 24.2358 30.0931C24.0913 30.4418 23.8732 30.7763 23.5815 31.0966C23.1512 31.5693 22.6577 31.8915 22.101 32.0634C21.5443 32.2353 20.9621 32.2399 20.3546 32.0774C19.747 31.9148 19.1544 31.5705 18.5767 31.0445C17.9973 30.5169 17.5999 29.9582 17.3846 29.3683C17.1675 28.7769 17.1185 28.196 17.2376 27.6256C17.3567 27.0552 17.6298 26.5355 18.0569 26.0663C18.3295 25.767 18.6249 25.5269 18.9432 25.3461C19.2615 25.1653 19.5937 25.0483 19.9398 24.9952C20.2841 24.9405 20.6326 24.9552 20.9851 25.0393C21.3374 25.12 21.6816 25.2764 22.0176 25.5087Z" fill="#C4C0CC"/>
<path d="M32.0256 22.5734L27.7952 16.6576L30.0598 15.0381C30.4873 14.7324 30.8907 14.5457 31.2702 14.4781C31.6502 14.4071 31.9931 14.4369 32.299 14.5675C32.6067 14.6967 32.8652 14.9076 33.0746 15.2003C33.2467 15.441 33.3478 15.6801 33.378 15.9176C33.4067 16.1532 33.381 16.3797 33.3007 16.5972C33.2205 16.8146 33.1006 17.0153 32.9411 17.1993L32.9824 17.257C33.2006 17.1185 33.4479 17.0391 33.7245 17.0188C34.0016 16.9953 34.2775 17.0454 34.5522 17.169C34.827 17.2927 35.0717 17.5048 35.2866 17.8052C35.5055 18.1114 35.6283 18.4398 35.6549 18.7904C35.6802 19.1391 35.5938 19.4904 35.3958 19.8445C35.1979 20.1985 34.8727 20.5373 34.4201 20.861L32.0256 22.5734ZM32.4568 20.9116L33.6094 20.0874C33.9983 19.8092 34.2255 19.5347 34.2909 19.2638C34.3568 18.9897 34.3057 18.7351 34.1377 18.5002C34.0124 18.325 33.8561 18.198 33.669 18.1194C33.4804 18.0389 33.2773 18.0154 33.0596 18.0488C32.8406 18.0803 32.6203 18.1752 32.3989 18.3336L31.2175 19.1785L32.4568 20.9116ZM30.666 18.4072L31.726 17.6491C31.9109 17.5169 32.0534 17.3641 32.1535 17.1906C32.2522 17.0153 32.2991 16.8347 32.2943 16.6489C32.2901 16.4599 32.226 16.2787 32.1021 16.1054C31.9382 15.8762 31.7224 15.7453 31.4546 15.7127C31.1887 15.6787 30.8979 15.7747 30.5821 16.0005L29.4989 16.7752L30.666 18.4072Z" fill="#C4C0CC"/>
<path d="M47.0422 13.5529L45.8431 14.107L43.254 8.50447L42.158 9.01096C41.8614 9.14801 41.6379 9.30478 41.4873 9.48128C41.3379 9.65464 41.2558 9.84648 41.2408 10.0568C41.227 10.264 41.2743 10.4847 41.3825 10.719C41.4908 10.9532 41.6273 11.1301 41.792 11.2495C41.9557 11.3669 42.1515 11.4237 42.3794 11.4201C42.6084 11.4134 42.8701 11.342 43.1645 11.206L44.7699 10.4641L45.2287 11.457L43.4622 12.2733C42.955 12.5077 42.4886 12.6215 42.063 12.6148C41.6364 12.6059 41.2613 12.4884 40.9378 12.2624C40.6154 12.0332 40.3564 11.7069 40.1608 11.2835C39.9661 10.8623 39.8839 10.4531 39.9141 10.0557C39.9455 9.65522 40.0935 9.28692 40.3581 8.95081C40.6226 8.61469 41.0074 8.32994 41.5125 8.09656L43.9914 6.951L47.0422 13.5529ZM42.2461 12.139L43.5516 11.5357L43.3287 15.269L41.9941 15.8857L42.2461 12.139Z" fill="#C4C0CC"/>
<path d="M55.8619 10.5466C55.3666 10.6739 54.9046 10.7023 54.4758 10.6317C54.0492 10.5605 53.6858 10.4021 53.3856 10.1567C53.0854 9.91119 52.8774 9.59189 52.7617 9.19877L54.0548 8.86626C54.1152 9.05361 54.221 9.20363 54.3722 9.31631C54.5228 9.4267 54.7033 9.4964 54.9136 9.52542C55.124 9.55445 55.3472 9.5386 55.5834 9.47787C55.8356 9.41302 56.048 9.31198 56.2205 9.17474C56.3924 9.0352 56.513 8.87218 56.5824 8.68568C56.6517 8.49917 56.6588 8.30304 56.6034 8.09727C56.5509 7.88345 56.4475 7.70958 56.2933 7.57568C56.1391 7.44178 55.9436 7.35638 55.7068 7.3195C55.4722 7.28202 55.2059 7.30161 54.9079 7.37825L54.2854 7.53832L54.0324 6.55469L54.6549 6.39462C54.9003 6.33154 55.1037 6.234 55.2654 6.102C55.4293 5.96941 55.5442 5.81274 55.6102 5.632C55.6756 5.44897 55.6809 5.25572 55.6261 5.05225C55.5771 4.85218 55.4879 4.69057 55.3584 4.56741C55.2307 4.44136 55.0737 4.3583 54.8874 4.3182C54.7033 4.27752 54.5013 4.28547 54.2812 4.34207C54.0656 4.39749 53.8762 4.48776 53.7128 4.61288C53.5494 4.738 53.4301 4.88723 53.3549 5.06057C53.2791 5.23161 53.2631 5.41661 53.307 5.61557L52.0791 5.93127C51.9869 5.53455 52.0114 5.15915 52.1526 4.80507C52.2954 4.44811 52.5288 4.13878 52.8526 3.87707C53.1758 3.61307 53.5656 3.42241 54.0219 3.30509C54.4919 3.18423 54.9227 3.16756 55.3143 3.25509C55.7076 3.33973 56.0375 3.50547 56.3038 3.75232C56.5702 3.99916 56.7494 4.30142 56.8413 4.6591C56.9456 5.05518 56.9142 5.41771 56.747 5.74669C56.5821 6.07509 56.32 6.32949 55.9606 6.5099L55.9747 6.56493C56.4877 6.50637 56.9143 6.59223 57.2546 6.8225C57.5966 7.04988 57.8231 7.38399 57.934 7.8248C58.0354 8.21917 58.0138 8.60116 57.8693 8.97076C57.7265 9.33748 57.4818 9.65952 57.1351 9.93688C56.7907 10.2137 56.3663 10.4169 55.8619 10.5466Z" fill="#C4C0CC"/>
<path d="M65.3811 8.52272L63.9784 8.62174L66.0203 1.18678L67.6427 1.07226L70.7123 8.14641L69.3096 8.24542L66.9649 2.6153L66.9082 2.6193L65.3811 8.52272ZM65.2264 5.67498L69.0521 5.40494L69.1266 6.46055L65.3009 6.7306L65.2264 5.67498Z" fill="#C4C0CC"/>
<path d="M77.0042 1.97149L77.13 0.874268L82.8948 1.53487L82.7691 2.63209L80.5358 2.37618L79.8336 8.5044L78.5353 8.35562L79.2375 2.2274L77.0042 1.97149Z" fill="#C4C0CC"/>
<path d="M90.4316 5.83718L92.1965 6.38051C92.7282 6.54421 93.1573 6.77168 93.4838 7.06293C93.8132 7.35262 94.0313 7.68606 94.1382 8.06325C94.245 8.44045 94.2329 8.84174 94.1019 9.26711C93.9703 9.69474 93.7525 10.0401 93.4485 10.3033C93.1453 10.5641 92.7743 10.7273 92.3355 10.7929C91.8989 10.8591 91.4148 10.8104 90.8831 10.6467L88.2799 9.84527L90.4198 2.89449L91.6824 3.28318L89.8601 9.20221L91.2007 9.61493C91.4813 9.70131 91.7352 9.72128 91.9625 9.67484C92.1899 9.62841 92.3801 9.5334 92.5333 9.38983C92.6888 9.24695 92.7978 9.0737 92.8605 8.87006C92.9511 8.57592 92.9149 8.29107 92.7521 8.01552C92.5922 7.73839 92.3018 7.53505 91.8809 7.40548L90.1161 6.86215L90.4316 5.83718Z" fill="#C4C0CC"/>
<path d="M107.553 12.456L106.379 11.835C106.448 11.6248 106.476 11.4215 106.465 11.2254C106.454 11.0271 106.41 10.8402 106.331 10.6647C106.253 10.4892 106.142 10.3299 105.998 10.1869C105.857 10.0428 105.688 9.9187 105.492 9.81464C105.142 9.62976 104.786 9.55381 104.423 9.58679C104.061 9.61767 103.715 9.76117 103.384 10.0173C103.054 10.2713 102.761 10.64 102.505 11.1234C102.245 11.6152 102.102 12.0699 102.077 12.4877C102.055 12.9044 102.132 13.2694 102.309 13.5827C102.489 13.8951 102.753 14.1431 103.101 14.3269C103.293 14.4287 103.486 14.4988 103.68 14.5372C103.878 14.5745 104.07 14.5784 104.257 14.5488C104.446 14.5203 104.625 14.4572 104.795 14.3594C104.966 14.2627 105.12 14.1296 105.255 13.9601L106.426 14.5874C106.22 14.8697 105.973 15.106 105.685 15.2964C105.399 15.4879 105.085 15.6242 104.742 15.7053C104.4 15.7843 104.042 15.7983 103.667 15.7473C103.293 15.6943 102.915 15.5665 102.532 15.3639C101.967 15.065 101.532 14.6674 101.227 14.1711C100.921 13.6748 100.772 13.1122 100.778 12.4833C100.784 11.8544 100.969 11.1946 101.334 10.504C101.701 9.81134 102.143 9.28719 102.66 8.93158C103.179 8.57388 103.729 8.38158 104.311 8.35469C104.893 8.3278 105.465 8.4627 106.026 8.75939C106.383 8.94869 106.69 9.17493 106.944 9.43812C107.199 9.7013 107.395 9.99386 107.532 10.3158C107.671 10.6356 107.744 10.9767 107.75 11.3391C107.76 11.7004 107.694 12.0727 107.553 12.456Z" fill="#C4C0CC"/>
<path d="M114.578 23.206L113.547 22.381L117.401 17.5605L116.458 16.8065C116.203 16.6025 115.962 16.4726 115.737 16.4168C115.515 16.3606 115.307 16.3729 115.112 16.4535C114.921 16.5338 114.744 16.6747 114.583 16.8763C114.422 17.0778 114.325 17.279 114.292 17.4797C114.26 17.6787 114.297 17.8792 114.402 18.0815C114.51 18.2833 114.691 18.4855 114.944 18.6881L116.325 19.7925L115.642 20.6468L114.123 19.4314C113.686 19.0825 113.376 18.7162 113.192 18.3324C113.009 17.9468 112.946 17.5588 113.004 17.1684C113.065 16.7775 113.241 16.4 113.532 16.0357C113.822 15.6733 114.151 15.4168 114.52 15.2663C114.893 15.1153 115.288 15.0831 115.707 15.1695C116.126 15.2559 116.553 15.4728 116.987 15.8203L119.12 17.5257L114.578 23.206ZM113.699 18.2835L114.822 19.1817L111.383 20.6511L110.235 19.733L113.699 18.2835Z" fill="#C4C0CC"/>
<path d="M126.319 33.7236C126.156 33.4879 126.065 33.2329 126.045 32.9587C126.027 32.6832 126.076 32.4198 126.19 32.1683C126.305 31.9189 126.481 31.7128 126.716 31.55C126.954 31.3858 127.209 31.2947 127.481 31.2764C127.757 31.2588 128.019 31.3077 128.269 31.4231C128.52 31.5372 128.727 31.7121 128.89 31.9478C129.054 32.1855 129.144 32.4411 129.161 32.7147C129.18 32.9889 129.132 33.2507 129.017 33.5002C128.905 33.7503 128.73 33.9573 128.492 34.1215C128.256 34.2842 128.001 34.3745 127.725 34.3921C127.451 34.4117 127.188 34.3644 126.937 34.2503C126.689 34.1369 126.483 33.9613 126.319 33.7236Z" fill="#C4C0CC"/>
<path d="M140.017 53.9131L139.638 52.64C139.836 52.5417 140.001 52.4198 140.133 52.2743C140.268 52.1281 140.37 51.9656 140.44 51.7866C140.511 51.6077 140.547 51.4167 140.548 51.2138C140.552 51.0124 140.523 50.8051 140.459 50.5918C140.347 50.2128 140.152 49.9053 139.874 49.6692C139.599 49.4324 139.254 49.2855 138.839 49.2285C138.427 49.1707 137.959 49.2198 137.434 49.3756C136.901 49.5341 136.476 49.7505 136.16 50.0247C135.847 50.3006 135.641 50.6114 135.541 50.9572C135.444 51.3046 135.452 51.6666 135.564 52.0433C135.626 52.2521 135.711 52.4392 135.819 52.6045C135.931 52.7715 136.062 52.9114 136.215 53.0242C136.367 53.1394 136.538 53.2232 136.726 53.2759C136.916 53.3308 137.118 53.3472 137.334 53.325L137.705 54.6001C137.36 54.651 137.018 54.6401 136.681 54.5676C136.344 54.4974 136.026 54.3682 135.728 54.1802C135.433 53.9914 135.172 53.7454 134.946 53.4421C134.722 53.1381 134.548 52.7785 134.425 52.3632C134.243 51.7505 134.222 51.1615 134.363 50.596C134.504 50.0306 134.801 49.5299 135.254 49.0939C135.707 48.6578 136.308 48.3285 137.057 48.1059C137.808 47.8826 138.492 47.8313 139.108 47.9519C139.727 48.0718 140.249 48.3302 140.676 48.727C141.102 49.1237 141.406 49.6262 141.587 50.2344C141.702 50.6224 141.755 50.9995 141.745 51.3654C141.735 51.7314 141.664 52.0762 141.53 52.3999C141.399 52.723 141.206 53.0136 140.952 53.2719C140.701 53.5319 140.389 53.7456 140.017 53.9131Z" fill="#C4C0CC"/>
<path d="M137.356 63.9978L144.606 63.4347L144.822 66.2104C144.863 66.7344 144.814 67.1763 144.676 67.5361C144.54 67.8981 144.337 68.1762 144.067 68.3705C143.798 68.5672 143.483 68.6794 143.125 68.7073C142.83 68.7302 142.573 68.6932 142.354 68.5962C142.137 68.499 141.957 68.3599 141.812 68.1788C141.667 67.9977 141.557 67.7913 141.482 67.5597L141.412 67.5652C141.417 67.8236 141.358 68.0764 141.232 68.3236C141.109 68.573 140.923 68.7833 140.675 68.9545C140.428 69.1257 140.119 69.2257 139.751 69.2542C139.376 69.2834 139.031 69.2187 138.717 69.0603C138.406 68.9016 138.15 68.6461 137.949 68.2936C137.748 67.9411 137.627 67.4876 137.583 66.9329L137.356 63.9978ZM138.555 65.2261L138.665 66.6388C138.702 67.1155 138.819 67.4519 139.017 67.6479C139.218 67.846 139.462 67.9339 139.75 67.9115C139.965 67.8948 140.154 67.8267 140.319 67.7071C140.485 67.5873 140.61 67.4256 140.694 67.222C140.78 67.0182 140.813 66.7806 140.792 66.5092L140.679 65.0611L138.555 65.2261ZM141.625 64.9877L141.726 66.2871C141.743 66.5137 141.8 66.7146 141.897 66.8899C141.996 67.0651 142.126 67.1986 142.288 67.2906C142.452 67.3847 142.64 67.4235 142.853 67.407C143.133 67.3852 143.357 67.2681 143.523 67.0557C143.69 66.8457 143.758 66.5471 143.728 66.16L143.625 64.8323L141.625 64.9877Z" fill="#C4C0CC"/>
<path d="M137.314 81.5156L137.459 80.2026L143.594 80.8827L143.727 79.6827C143.763 79.3579 143.744 79.0855 143.671 78.8654C143.599 78.6479 143.478 78.4784 143.305 78.3569C143.135 78.238 142.922 78.1643 142.665 78.1359C142.409 78.1074 142.187 78.1328 141.999 78.2121C141.814 78.2916 141.665 78.4298 141.55 78.6267C141.437 78.8262 141.363 79.0872 141.327 79.4095L141.132 81.1672L140.045 81.0467L140.26 79.1125C140.321 78.5572 140.465 78.0991 140.691 77.7383C140.919 77.3777 141.213 77.1174 141.574 76.9573C141.937 76.7998 142.35 76.7468 142.814 76.7982C143.275 76.8493 143.668 76.9905 143.992 77.2218C144.319 77.4557 144.558 77.7728 144.709 78.173C144.859 78.5732 144.904 79.0498 144.843 79.6028L144.542 82.317L137.314 81.5156ZM141.003 78.141L140.845 79.5704L137.764 77.4496L137.926 75.9884L141.003 78.141Z" fill="#C4C0CC"/>
<path d="M135.328 90.6198C135.475 90.13 135.689 89.7198 135.971 89.3893C136.253 89.061 136.576 88.8318 136.941 88.7017C137.307 88.5716 137.688 88.5586 138.084 88.6628L137.7 89.9416C137.508 89.8964 137.325 89.9095 137.151 89.9806C136.978 90.0525 136.825 90.1709 136.692 90.336C136.558 90.5011 136.456 90.7004 136.386 90.9339C136.311 91.1833 136.288 91.4173 136.316 91.6359C136.347 91.8552 136.424 92.0428 136.548 92.1986C136.672 92.3544 136.836 92.4618 137.041 92.5208C137.251 92.5863 137.453 92.5877 137.648 92.525C137.842 92.4622 138.016 92.339 138.17 92.1553C138.323 91.9739 138.444 91.7359 138.533 91.4411L138.718 90.8255L139.69 91.1175L139.506 91.7331C139.433 91.9757 139.411 92.2003 139.44 92.4069C139.469 92.6157 139.544 92.7951 139.665 92.945C139.787 93.0956 139.95 93.2001 140.153 93.2584C140.349 93.3199 140.534 93.327 140.706 93.2799C140.88 93.2357 141.032 93.1442 141.163 93.0055C141.293 92.869 141.39 92.6919 141.456 92.4742C141.52 92.2611 141.54 92.0523 141.518 91.8477C141.495 91.6432 141.429 91.4639 141.32 91.3099C141.212 91.1566 141.062 91.0473 140.869 90.982L141.234 89.7677C141.621 89.8939 141.93 90.1089 142.16 90.4128C142.392 90.7196 142.536 91.0793 142.592 91.4918C142.651 91.9049 142.613 92.3371 142.478 92.7884C142.338 93.2532 142.13 93.6306 141.852 93.9206C141.576 94.2135 141.264 94.4102 140.915 94.5106C140.566 94.611 140.215 94.6081 139.861 94.5019C139.468 94.3864 139.174 94.1721 138.979 93.8589C138.783 93.5479 138.701 93.192 138.732 92.7911L138.678 92.7748C138.462 93.2442 138.168 93.565 137.795 93.7372C137.424 93.9125 137.021 93.9336 136.586 93.8006C136.196 93.6836 135.88 93.4676 135.639 93.1528C135.399 92.841 135.249 92.465 135.191 92.0249C135.132 91.587 135.178 91.1186 135.328 90.6198Z" fill="#C4C0CC"/>
<path d="M132.139 99.8151L132.779 98.5631L138.088 104.155L137.347 105.603L129.705 104.573L130.345 103.321L136.377 104.225L136.403 104.174L132.139 99.8151ZM134.657 101.155L132.91 104.569L131.968 104.087L133.714 100.673L134.657 101.155Z" fill="#C4C0CC"/>
<path d="M131.738 113.152L132.612 113.827L129.067 118.42L128.193 117.745L129.566 115.966L124.683 112.196L125.482 111.162L130.365 114.931L131.738 113.152Z" fill="#C4C0CC"/>
<path d="M121.488 122.648L120.11 123.878C119.695 124.248 119.279 124.498 118.861 124.627C118.442 124.759 118.044 124.773 117.666 124.67C117.288 124.566 116.951 124.348 116.654 124.016C116.356 123.683 116.173 123.318 116.105 122.921C116.039 122.527 116.091 122.125 116.262 121.716C116.431 121.308 116.723 120.918 117.138 120.548L119.169 118.734L124.013 124.159L123.027 125.039L118.903 120.419L117.856 121.353C117.637 121.549 117.489 121.756 117.411 121.974C117.334 122.193 117.317 122.405 117.36 122.61C117.402 122.817 117.494 123 117.636 123.159C117.841 123.389 118.104 123.505 118.424 123.508C118.743 123.514 119.068 123.371 119.396 123.078L120.774 121.848L121.488 122.648Z" fill="#C4C0CC"/>
<path d="M106.971 133.883L108.11 133.199C108.254 133.366 108.413 133.495 108.587 133.587C108.762 133.681 108.945 133.739 109.136 133.763C109.327 133.786 109.521 133.773 109.718 133.724C109.914 133.678 110.107 133.598 110.298 133.483C110.637 133.28 110.886 133.014 111.045 132.686C111.206 132.361 111.262 131.99 111.214 131.574C111.167 131.16 111.003 130.719 110.721 130.25C110.435 129.773 110.119 129.416 109.775 129.178C109.43 128.944 109.077 128.821 108.718 128.811C108.357 128.804 108.008 128.902 107.671 129.104C107.485 129.216 107.325 129.345 107.192 129.491C107.058 129.641 106.955 129.803 106.884 129.979C106.81 130.156 106.772 130.342 106.768 130.537C106.762 130.734 106.796 130.934 106.872 131.138L105.729 131.816C105.594 131.494 105.519 131.16 105.505 130.815C105.489 130.471 105.535 130.132 105.643 129.796C105.752 129.463 105.925 129.149 106.163 128.854C106.401 128.562 106.706 128.304 107.078 128.081C107.626 127.752 108.191 127.585 108.774 127.58C109.356 127.575 109.915 127.738 110.45 128.068C110.986 128.399 111.455 128.899 111.857 129.568C112.26 130.24 112.48 130.889 112.517 131.516C112.555 132.145 112.436 132.716 112.158 133.228C111.88 133.74 111.469 134.159 110.925 134.486C110.578 134.694 110.226 134.84 109.869 134.921C109.512 135.003 109.161 135.02 108.814 134.971C108.468 134.925 108.139 134.811 107.825 134.629C107.511 134.45 107.226 134.202 106.971 133.883Z" fill="#C4C0CC"/>
<path d="M94.1377 134.339L95.3773 133.883L97.5109 139.674L98.6439 139.257C98.9504 139.144 99.1858 139.005 99.3499 138.841C99.5127 138.68 99.6099 138.496 99.6416 138.287C99.6719 138.082 99.6424 137.858 99.5532 137.616C99.464 137.374 99.342 137.187 99.1874 137.054C99.0335 136.924 98.8429 136.852 98.6155 136.837C98.3866 136.826 98.1201 136.876 97.8157 136.988L96.1563 137.6L95.7782 136.573L97.6042 135.901C98.1285 135.707 98.6025 135.631 99.0262 135.672C99.4507 135.715 99.8152 135.862 100.12 136.113C100.423 136.367 100.655 136.713 100.816 137.151C100.976 137.586 101.026 138.001 100.964 138.394C100.901 138.791 100.724 139.146 100.433 139.46C100.143 139.774 99.7364 140.027 99.2144 140.22L96.6519 141.164L94.1377 134.339ZM98.8057 136.132L97.4562 136.629L97.9764 132.925L99.3559 132.417L98.8057 136.132Z" fill="#C4C0CC"/>
<path d="M79.0655 138.952C79.3515 138.935 79.6168 138.989 79.8617 139.114C80.1066 139.241 80.3072 139.418 80.4635 139.646C80.6173 139.874 80.703 140.131 80.7205 140.417C80.7381 140.705 80.6843 140.97 80.5592 141.213C80.4319 141.458 80.2543 141.657 80.0266 141.811C79.7989 141.967 79.5421 142.054 79.2562 142.072C78.9679 142.089 78.7025 142.034 78.4599 141.907C78.215 141.782 78.0157 141.605 77.8618 141.378C77.7058 141.152 77.6189 140.896 77.6013 140.607C77.5838 140.321 77.6387 140.056 77.7661 139.811C77.891 139.566 78.0673 139.366 78.295 139.209C78.5204 139.056 78.7772 138.97 79.0655 138.952Z" fill="#C4C0CC"/>
</svg>
